<?xml version="1.0" encoding="utf-8"?>
<!-- Generator: Adobe Illustrator 21.1.0, SVG Export Plug-In . SVG Version: 6.00 Build 0)  -->
<svg version="1.1" id="_x32_" xmlns="http://www.w3.org/2000/svg" xmlns:xlink="http://www.w3.org/1999/xlink" x="0px" y="0px"
	 viewBox="0 0 512 512" style="enable-background:new 0 0 512 512;" xml:space="preserve">
<style type="text/css">
	.st0{fill:#3262E0;}
</style>
<g>
	<path class="st0" d="M434.3,133.2c-16.4-16.3-37.9-27.6-61.8-31.4c-7.5-19.5-20-36.4-36-49.1c-20.2-16.1-46-25.6-73.7-25.2
		c-28.1,0.4-53.9,10.8-73.7,27.7c-14.9,12.7-26.5,29-33.5,47.7c-30.9,0.6-58.9,13.6-78.9,34.1c-20.1,20.7-32.5,49.2-32,80.3
		c0.4,31.1,13.5,59.4,34.2,79.5c20.7,20.1,49.2,32.5,80.3,32c42.8-0.6,154.8-2.1,196.9-2.7c31.1-0.4,59.4-13.5,79.5-34.2
		c20.1-20.7,32.5-49.2,32-80.3C467.1,181,454.4,153.2,434.3,133.2z M403.5,260.9c-12.3,12.6-29.1,20.4-48.1,20.7
		c-42.1,0.6-154.1,2.1-196.9,2.6c-19,0.3-36-7.1-48.7-19.4c-12.6-12.3-20.4-29.1-20.7-48.1c-0.2-19,7.2-36,19.4-48.7
		c12.3-12.6,29.2-20.4,48.1-20.7c3.8-0.1,7.7,0.3,11.8,0.9l21.4,3.4l4-21.4c3.1-16.4,11.7-30.9,24-41.3c12.3-10.5,28-16.8,45.4-17
		c17.2-0.2,32.9,5.6,45.4,15.5c12.5,9.9,21.6,23.9,25.3,40l3.9,17.1l17.5,0.2c18.5,0.2,35.2,7.8,47.4,20
		c12.2,12.2,19.8,28.8,20.1,47.5C423.2,231.2,415.8,248.3,403.5,260.9z"/>
	<path class="st0" d="M160.8,352.4c0,0-17.5,16.4-21.7,21.4c-1.6,1.9-2.7,4.2-3.4,6.8c-2.3,9.3,3.3,18.8,12.6,21.1
		c9.3,2.3,18.8-3.3,21.1-12.6c0.6-2.6,0.7-5.1,0.2-7.6C168.5,375.2,160.8,352.4,160.8,352.4z"/>
	<path class="st0" d="M140.1,434.6c0,0-17.5,16.4-21.7,21.4c-1.6,1.9-2.7,4.2-3.4,6.8c-2.4,9.3,3.3,18.8,12.6,21.1
		c9.3,2.4,18.8-3.3,21.1-12.6c0.6-2.6,0.7-5.1,0.2-7.6C147.8,457.4,140.1,434.6,140.1,434.6z"/>
	<path class="st0" d="M264.9,351c0,0-17.5,16.4-21.7,21.4c-1.6,1.9-2.7,4.2-3.4,6.8c-2.4,9.3,3.3,18.8,12.6,21.1
		c9.3,2.3,18.8-3.3,21.1-12.6c0.6-2.6,0.7-5.1,0.2-7.6C272.6,373.8,264.9,351,264.9,351z"/>
	<path class="st0" d="M244.2,433.2c0,0-17.5,16.4-21.6,21.4c-1.6,1.9-2.8,4.2-3.4,6.8c-2.4,9.3,3.3,18.8,12.6,21.1
		c9.3,2.3,18.8-3.3,21.1-12.6c0.7-2.6,0.7-5.1,0.2-7.6C251.9,456,244.2,433.2,244.2,433.2z"/>
	<path class="st0" d="M369,349.6c0,0-17.5,16.4-21.7,21.4c-1.6,1.9-2.8,4.2-3.4,6.8c-2.3,9.3,3.3,18.8,12.6,21.1
		c9.3,2.3,18.8-3.3,21.1-12.6c0.7-2.6,0.7-5.1,0.2-7.6C376.6,372.4,369,349.6,369,349.6z"/>
	<path class="st0" d="M348.3,431.8c0,0-17.5,16.4-21.6,21.4c-1.6,1.9-2.7,4.2-3.4,6.8c-2.3,9.3,3.3,18.8,12.6,21.1
		c9.3,2.3,18.8-3.3,21.1-12.6c0.6-2.6,0.7-5.1,0.2-7.6C355.9,454.6,348.3,431.8,348.3,431.8z"/>
</g>
</svg>
